<svg id="Layer_1" enable-background="new 0 0 512 512" height="512" viewBox="0 0 512 512" width="512" xmlns="http://www.w3.org/2000/svg"><g><path d="m493.37 366.861c-1.72 6.8-7.83 11.33-14.53 11.33-1.22 0-2.46-.15-3.69-.47-10.18-2.58-19.87-6.39-28.96-11.34h-382.26c-8.53 4.47-17.59 7.94-27.08 10.34-8.03 2.04-16.19-2.82-18.22-10.86-2.04-8.03 2.83-16.19 10.86-18.22 47.65-12.07 78.88-59.78 80.02-115.92l-9.96-.03c-7-.02-13.05-4.88-14.59-11.71-1.53-6.84 1.87-13.82 8.19-16.83 4.84-2.31 9.4-5.26 13.64-8.77l10.03-10.06c14.06-16.92 22.57-40.89 22.57-66.5 0-3.99 1.59-7.82 4.41-10.63 2.82-2.8 6.62-4.37 10.58-4.37h.08l101.54.5 101.69.5c8.25.04 14.92 6.74 14.92 15 0 26.07 8.82 50.46 23.34 67.41l9.2 9.1c4.25 3.53 8.84 6.5 13.7 8.82 6.34 3.02 9.74 10.03 8.18 16.87-1.56 6.83-7.63 11.67-14.63 11.67h-.05l-9.86-.03c1.12 56.17 32.35 103.91 80.02 115.98 8.03 2.03 12.9 10.191 10.86 18.22z" fill="#ffb454"/><path d="m493.37 366.861c-1.72 6.8-7.83 11.33-14.53 11.33-1.22 0-2.46-.15-3.69-.47-10.18-2.58-19.87-6.39-28.96-11.34h-190.19v-263.06l101.69.5c8.25.04 14.92 6.74 14.92 15 0 26.07 8.82 50.46 23.34 67.41l9.2 9.1c4.25 3.53 8.84 6.5 13.7 8.82 6.34 3.02 9.74 10.03 8.18 16.87-1.56 6.83-7.63 11.67-14.63 11.67h-.05l-9.86-.03c1.12 56.17 32.35 103.91 80.02 115.98 8.03 2.03 12.9 10.191 10.86 18.22z" fill="#ff9d21"/><g><path d="m452.56 395.901v101.099c0 8.28-6.72 15-15 15h-52.71l-128.85-30-128.85 30h-52.71c-8.28 0-15-6.72-15-15v-101.099c0-40.48 29.24-74.26 67.71-81.34 4.87-.89 9.88 18.64 15 18.64l15-20h197.7l15 20c5.12 0 10.13-19.53 15-18.64 38.47 7.08 67.71 40.86 67.71 81.34z" fill="#f6f6f6"/><path d="m452.56 395.901v101.099c0 8.28-6.72 15-15 15h-52.71l-128.85-30v-168.799h98.85l15 20c5.12 0 10.13-19.53 15-18.64 38.47 7.08 67.71 40.86 67.71 81.34z" fill="#efefef"/><path d="m353.06 130.142v79.11c0 39.73-23.89 74.95-60.16 89.8v37.72c0 20.34-16.56 36.89-36.9 36.89s-36.9-16.55-36.9-36.89v-37.72c-36.27-14.85-60.16-50.07-60.16-89.8v-79.11c0-5.52 4.48-10 10-10h174.12c5.52 0 10 4.48 10 10z" fill="#ffd1c2"/><path d="m353.06 130.142v79.11c0 39.73-23.89 74.95-60.16 89.8v37.72c0 20.34-16.56 36.89-36.9 36.89v-253.52h87.06c5.52 0 10 4.48 10 10z" fill="#ffc2af"/><path d="m336.268 14.623c-8.284 0-15 6.716-15 15v35.193c0 8.284 6.716 15 15 15s15-6.716 15-15v-35.193c0-8.284-6.716-15-15-15z" fill="#2e2e2e"/><path d="m391.39 104.982c.07 7.99-3.01 15.54-8.66 21.24-5.7 5.75-13.3 8.92-21.4 8.92h-192.84c-30.74 0-56-23.87-57.52-54.33l-.03-.63c-.86-20.76 6.68-39.51 21.8-54.21 13.64-13.27 32.68-22.11 53.6-24.89 26.19-3.48 49.18 1.41 69.66 14.92 6.86 4.51 13.44 10 19.77 16.47 24.06 24.62 41.04 26 66.15 25.38 12.71-.33 25.35 4.58 34.68 13.47 9.23 8.78 14.48 20.48 14.78 32.91 0 .26.01.51.01.75z" fill="#ace233"/><g><path d="m157.15 313.201v108.799l-30-24.4v-83.039c4.87-.89 9.88-1.36 15-1.36z" fill="#454554"/><path d="m384.85 314.561v83.039l-30 24.4v-108.799h15c5.12 0 10.13.47 15 1.36z" fill="#2e2e2e"/></g><path d="m127.15 397.601h257.7v114.399h-257.7z" fill="#ace233"/><path d="m299.32 215.342c0 23.89-19.44 43.32-43.32 43.32s-43.32-19.43-43.32-43.32c0-8.28 6.72-15 15-15 8.29 0 15 6.72 15 15 0 7.35 5.98 13.32 13.32 13.32s13.32-5.97 13.32-13.32c0-8.28 6.71-15 15-15 8.28 0 15 6.72 15 15z" fill="#ffc2af"/><path d="m256 258.661v-30c7.34 0 13.32-5.97 13.32-13.32 0-8.28 6.71-15 15-15 8.28 0 15 6.72 15 15 0 23.89-19.44 43.32-43.32 43.32z" fill="#f4a792"/><g fill="#00da80"><path d="m256 397.601h128.85v114.399h-128.85z"/><path d="m361.33 135.142h-105.33v-119.139c6.86 4.51 13.44 10 19.77 16.47 24.06 24.62 41.04 26 66.15 25.38 12.71-.33 25.35 4.58 34.68 13.47 9.23 8.78 14.48 20.48 14.78 32.91 0 .26.01.51.01.75.07 7.99-3.01 15.54-8.66 21.24-5.7 5.749-13.3 8.919-21.4 8.919z"/></g></g></g></svg>