<svg id="flat" height="512" viewBox="0 0 512 512" width="512" xmlns="http://www.w3.org/2000/svg"><path d="m304 328h88v72h-88z" fill="#f5c99d"/><path d="m120 328h88v72h-88z" fill="#f5c99d"/><path d="m224 176h96v32h-96z" fill="#eda600" transform="matrix(0 -1 1 0 80 464)"/><path d="m208 192h64v32h-64z" fill="#de9400" transform="matrix(0 -1 1 0 32 448)"/><path d="m188 204h40v32h-40z" fill="#cf8300" transform="matrix(0 -1 1 0 -12 428)"/><path d="m244 164h120v32h-120z" fill="#f6bb00" transform="matrix(0 -1 1 0 124 484)"/><g fill="#ffe180"><path d="m232 256h16v16h-16z"/><path d="m200 256h16v16h-16z"/><path d="m264 256h16v16h-16z"/><path d="m296 256h16v16h-16z"/><path d="m384 152h32v16h-32z"/><path d="m320 32h-16v16h-16v16h16v16h16v-16h16v-16h-16z"/></g><path d="m368 200a112 112 0 1 1 -112-112v-64a176 176 0 1 0 176 176z" fill="#f6bb00"/><path d="m152 400v-35.14941a53.90209 53.90209 0 0 0 -24.00655-44.8519l.00655-31.99608a16 16 0 0 0 -16-16.00261 16 16 0 0 0 -16 15.99736v.00264l-.00058-47.99972a15.9997 15.9997 0 0 0 -15.9997-16.00028 15.9997 15.9997 0 0 0 -15.99972 15.99969v80.90414a88 88 0 0 0 39.18638 73.22043l8.81362 5.87574z" fill="#f5c99d"/><path d="m160 376h-16v-11.14941a45.81011 45.81011 0 0 0 -20.44336-38.19532 7.999 7.999 0 0 1 -3.56348-6.6582l.00684-31.99607a8 8 0 0 0 -16-.00244v40.00144h-16v-40.00244a24 24 0 1 1 48 .00586l-.00586 27.89892a61.763 61.763 0 0 1 24.00586 48.94825z" fill="#deae7e"/><path d="m88 240h16v88h-16z" fill="#deae7e"/><path d="m112 400h96v80h-96z" fill="#548aff"/><path d="m360 400v-35.14941a53.90209 53.90209 0 0 1 24.00655-44.8519l-.00655-31.99608a16 16 0 0 1 16-16.00261 16 16 0 0 1 16 15.99736v.00264l.00058-47.99972a15.9997 15.9997 0 0 1 15.9997-16.00028 15.9997 15.9997 0 0 1 15.99972 15.99969v80.90414a88 88 0 0 1 -39.18638 73.22043l-8.81362 5.87574z" fill="#f5c99d"/><path d="m368 376h-16v-11.14941a61.763 61.763 0 0 1 24.00586-48.94825l-.00586-27.89795a24 24 0 1 1 48-.00781v40.00342h-16v-40.00244a8 8 0 0 0 -16 .0039l.00684 31.99561a7.999 7.999 0 0 1 -3.56348 6.6582 45.81011 45.81011 0 0 0 -20.44336 38.19532z" fill="#deae7e"/><path d="m408 240h16v88h-16z" fill="#deae7e"/><path d="m304 400h96v80h-96z" fill="#548aff"/></svg>